<?xml version="1.0" encoding="UTF-8"?>
<svg id="Layer_1" data-name="Layer 1" xmlns="http://www.w3.org/2000/svg" viewBox="0 0 249.36 38.08">
  <defs>
    <style>
      .cls-1 {
        fill: #00275b;
      }

      .cls-2 {
        fill: #fff;
      }

      .cls-3 {
        fill: #bd2036;
      }
    </style>
  </defs>
  <polygon class="cls-2" points="8.01 0 8.01 12.35 9.28 12.35 4.25 25.72 0 25.72 0 38.08 41.25 38.08 41.25 25.7 36.97 25.7 31.98 12.36 33.23 12.37 33.23 0 8.01 0"/>
  <path class="cls-3" d="M20.62,4.62l8.83,22.91s1.13,2.79,2.97,2.79h-6.43s.32.05.64-.49c.18-.31.03-.77.03-.77l-1.99-5.11h-8.1l-1.99,5.11s-.15.46.03.77c.32.54.64.49.64.49h-6.43c1.84,0,2.97-2.79,2.97-2.79L20.62,4.62Z"/>
  <polygon class="cls-1" points="20.62 4.59 28.59 4.59 28.59 7.77 25.28 7.77 33.98 30.2 36.55 30.2 36.55 33.5 25.77 33.5 25.77 30.29 22.74 30.29 22.74 36.58 39.76 36.58 39.76 27.2 35.94 27.2 29.81 10.87 31.74 10.87 31.74 1.49 20.62 1.49 9.51 1.49 9.51 10.87 11.43 10.87 5.3 27.18 1.48 27.2 1.48 36.58 18.5 36.58 18.5 30.29 15.48 30.29 15.48 33.5 4.69 33.5 4.69 30.2 7.27 30.2 15.97 7.77 12.66 7.77 12.66 4.59 20.62 4.59"/>
  <polygon class="cls-2" points="20.61 21.51 23.72 21.51 20.67 13.48 17.51 21.51 20.61 21.51"/>
  <rect class="cls-1" x="50.45" y="0" width=".74" height="38.04"/>
  <g>
    <path class="cls-1" d="M244.04,16.08c.22-.06.47-.08.75-.08.52,0,.99.13,1.4.41.41.27.73.65.96,1.14.23.49.34,1.05.34,1.68,0,.94-.28,1.68-.84,2.23-.56.55-1.32.82-2.27.82-.46,0-.98-.07-1.56-.21v-11.13c-.24.23-.6.35-1.08.35h-1.26c.24.18.4.33.49.45.09.12.14.26.17.43.02.17.04.48.04.92v8.88c0,.37-.04.64-.11.81-.07.17-.22.33-.45.47.92.22,2.1.33,3.52.33,1.02,0,1.93-.2,2.73-.59.8-.4,1.41-.95,1.84-1.66.43-.71.65-1.53.65-2.47,0-.6-.1-1.15-.29-1.66s-.47-.96-.82-1.34c-.36-.38-.77-.68-1.24-.89-.47-.21-.98-.32-1.53-.32-.24,0-.45.02-.63.05-.18.03-.38.09-.63.18l-1.01,1.54c.32-.16.59-.27.81-.33M236.95,22.39c.09.25.28.47.55.64.22.14.45.23.69.28.24.05.59.1,1.03.13l.8-1.19c-.5-.02-.87-.12-1.09-.3-.21-.15-.34-.32-.39-.5s-.08-.53-.08-1.05v-2.36c0-.67-.02-1.14-.06-1.4-.04-.26-.14-.52-.3-.78-.51-.82-1.54-1.23-3.09-1.23-.44,0-.86.04-1.27.12l-1.21,1.84c.6-.29,1.07-.48,1.41-.58.34-.1.71-.15,1.08-.15.34,0,.64.05.91.14.27.1.48.23.62.41.15.18.22.38.22.61,0,.33-.14.57-.41.74-.27.17-.83.34-1.66.5-1.15.22-1.95.46-2.4.71-.31.16-.56.42-.74.76-.19.34-.28.7-.28,1.08,0,.8.31,1.47.93,2.03.53.48,1.25.71,2.17.71.36,0,.69-.04,1.01-.11l1.07-1.36c-.52.16-.98.24-1.37.24-.61,0-1.08-.13-1.43-.4-.34-.26-.51-.63-.51-1.09,0-.72.44-1.19,1.32-1.41.66-.15,1.08-.25,1.27-.3.19-.05.36-.1.52-.16.16-.05.34-.13.55-.23v2.36c0,.6.05,1.02.14,1.28M224.7,12.39c.04-.29.12-.52.23-.69.11-.16.29-.31.52-.42h-3.47c.23.12.4.26.52.43.12.17.2.4.24.69.04.29.06.7.06,1.22v7.38c0,.52-.02.93-.06,1.22-.04.29-.12.52-.24.69-.12.17-.29.31-.52.43h7.48l.97-2.43c-.6.43-1.14.73-1.62.89-.48.16-1.05.24-1.71.24-.79,0-1.61-.06-2.46-.19v-8.22c0-.52.02-.93.06-1.23M209.78,15.4c-.15-.34-.28-.52-.38-.53-.08-.04-.26-.06-.55-.06l-1.77.08c.3.13.55.3.73.52.18.22.4.58.64,1.11l2.42,5.29c.12.28.22.47.28.58.06.11.13.22.22.31.08.09.23.25.45.46l-.18.48c-.27.7-.58,1.22-.94,1.57-.35.35-.76.52-1.21.52-.33,0-.67-.1-1.03-.31l-1.65,1.19c.51.18.93.3,1.24.37.31.07.64.1.98.1.49,0,.94-.07,1.36-.2.42-.13.8-.33,1.12-.6.3-.25.56-.52.77-.82.21-.3.42-.72.64-1.26l3.9-9.31h-2.57c.36.24.53.51.53.83,0,.29-.09.66-.28,1.11l-1.92,4.87-2.79-6.29ZM202.5,16.34c.45.43.67.95.67,1.57,0,.55-.17.99-.51,1.34-.34.35-.78.52-1.33.52-.65,0-1.21-.23-1.67-.68-.46-.45-.69-1.01-.69-1.66,0-.5.18-.91.55-1.24.36-.33.81-.5,1.35-.5.64,0,1.19.22,1.63.64M204.4,14.79c-.56,0-1.14-.02-1.75-.07-.85-.06-1.38-.08-1.59-.08-.7,0-1.33.14-1.91.41-.58.28-1.03.65-1.36,1.13-.33.47-.49,1-.49,1.58,0,.41.09.8.26,1.19.18.38.42.72.74,1,.21.18.4.31.57.39.17.08.42.17.75.26-.41.16-.71.29-.92.39-.21.1-.35.2-.42.29-.08.09-.11.19-.11.31,0,.15.04.33.13.52.09.19.19.35.31.47.24.21.53.31.87.31.17,0,.31,0,.42-.02.22-.01.51-.02.88-.02,1.25,0,2.18.14,2.79.43.62.29.92.73.92,1.32,0,.4-.14.74-.41,1.05s-.65.54-1.15.71c-.49.17-1.06.26-1.69.26-.95,0-1.71-.18-2.28-.53-.57-.35-.85-.83-.85-1.44,0-.25.07-.45.2-.58.13-.13.34-.22.61-.27-.35-.15-.68-.22-.99-.22-.35,0-.65.06-.91.18-.26.12-.45.29-.58.5-.13.22-.2.48-.2.77,0,.49.22.94.66,1.34.44.4,1.05.72,1.82.95.77.23,1.61.34,2.53.34.41,0,.81-.03,1.2-.08.39-.06.75-.14,1.09-.24.33-.1.66-.23.96-.39.3-.16.58-.33.82-.53.61-.5.92-1.15.92-1.95,0-.52-.13-.97-.4-1.34-.19-.24-.44-.47-.75-.67-.32-.21-.63-.35-.94-.44-.37-.11-.77-.18-1.18-.22-.42-.04-1.04-.06-1.88-.07-.51,0-.76-.12-.76-.35,0-.11.06-.21.17-.28s.3-.14.56-.19c.79-.08,1.4-.2,1.82-.36.69-.25,1.21-.58,1.56-1.01.35-.42.52-.92.52-1.49,0-.46-.11-.88-.32-1.24-.21-.36-.56-.7-1.03-1.03,1,.18,1.67.26,2.02.26.26,0,.44-.08.52-.23l.52-1.18c-.82.1-1.57.15-2.26.15M192.61,16.3c.45.29.81.69,1.06,1.21.25.52.38,1.12.38,1.8,0,.6-.12,1.13-.36,1.58-.24.46-.58.81-1.01,1.07-.43.25-.93.38-1.47.38-.41,0-.8-.08-1.16-.25-.36-.17-.68-.41-.95-.72-.28-.32-.49-.69-.63-1.11-.15-.42-.22-.87-.22-1.33,0-.59.12-1.12.35-1.58.23-.47.56-.83.99-1.09.42-.26.91-.39,1.46-.39.6,0,1.12.14,1.58.43M190.09,14.75c-.37.07-.73.18-1.06.33-.33.15-.65.34-.95.56-.54.42-.96.93-1.26,1.55-.3.62-.46,1.27-.46,1.94,0,.82.2,1.58.61,2.25.4.68.97,1.21,1.69,1.6.72.39,1.52.58,2.39.58s1.72-.2,2.47-.6c.75-.4,1.33-.95,1.76-1.64.43-.69.64-1.46.64-2.29,0-.61-.12-1.2-.36-1.76-.24-.56-.6-1.05-1.06-1.47-.85-.78-1.91-1.18-3.17-1.18-.45,0-.86.04-1.24.11M184.81,22.68c-.07-.18-.11-.57-.11-1.15v-10.59c-.21.23-.57.35-1.08.35h-1.26c.24.18.4.33.49.44.09.12.14.26.17.43.03.17.04.48.04.93v8.44c0,.44-.01.75-.04.92-.03.17-.08.32-.17.44-.09.12-.25.27-.49.45h3.03c-.32-.25-.52-.47-.59-.66M178.11,16.3c.45.29.81.69,1.06,1.21.25.52.38,1.12.38,1.8,0,.6-.12,1.13-.36,1.58-.24.46-.58.81-1.01,1.07s-.93.38-1.47.38c-.41,0-.8-.08-1.16-.25-.36-.17-.68-.41-.95-.72-.28-.32-.49-.69-.63-1.11-.15-.42-.22-.87-.22-1.33,0-.59.12-1.12.35-1.58.23-.47.56-.83.99-1.09.42-.26.91-.39,1.46-.39.6,0,1.12.14,1.58.43M175.59,14.75c-.37.07-.72.18-1.06.33-.33.15-.65.34-.95.56-.54.42-.96.93-1.26,1.55-.3.62-.46,1.27-.46,1.94,0,.82.2,1.58.6,2.25.4.68.97,1.21,1.69,1.6.72.39,1.52.58,2.39.58s1.72-.2,2.47-.6c.75-.4,1.33-.95,1.76-1.64.43-.69.64-1.46.64-2.29,0-.61-.12-1.2-.36-1.76-.24-.56-.6-1.05-1.06-1.47-.85-.78-1.91-1.18-3.17-1.18-.45,0-.86.04-1.24.11M157.6,14.89h-1.27c.24.18.4.33.49.45.09.12.14.26.17.43.02.17.04.48.04.92v4.84c0,.44-.01.75-.04.92-.03.17-.08.32-.17.44-.09.12-.25.27-.49.45h3.03c-.23-.17-.38-.32-.47-.44-.09-.12-.15-.28-.18-.47s-.04-.49-.04-.9v-3.24c0-.37.02-.66.07-.85.04-.19.13-.38.24-.55.18-.26.42-.46.72-.6.31-.14.64-.21,1-.21.28,0,.56.05.84.16.28.11.51.26.68.45.37.39.56,1.01.56,1.87v2.98c0,.4-.01.7-.04.89-.03.19-.08.35-.17.46-.08.12-.25.26-.48.45h3.05c-.33-.26-.53-.48-.6-.66-.07-.18-.11-.56-.11-1.14v-3.12c0-.42.01-.72.03-.88.02-.17.08-.33.16-.5.17-.32.42-.57.75-.75.33-.18.69-.27,1.08-.27.7,0,1.25.24,1.64.71.16.22.28.48.36.78.07.3.11.7.11,1.21v2.83c0,.4-.02.7-.04.89-.03.19-.09.35-.17.47-.09.12-.25.27-.5.44h3.18c-.23-.1-.4-.21-.52-.33-.12-.12-.2-.3-.24-.53s-.06-.54-.06-.95v-3.28c0-.59-.03-1.05-.1-1.38-.07-.34-.18-.63-.33-.89-.24-.41-.62-.74-1.13-.98-.51-.24-1.08-.36-1.71-.36-.39,0-.76.05-1.09.16-.33.11-.63.27-.91.5-.28.23-.57.54-.88.95-.35-.56-.74-.97-1.18-1.22-.44-.26-.98-.38-1.61-.38-.58,0-1.08.11-1.49.33-.41.22-.81.59-1.19,1.11v-1.54c-.2.23-.53.35-.98.35M152.45,14.64c-.74,0-1.38.1-1.92.29-.54.19-.95.48-1.24.85-.29.37-.43.81-.43,1.32,0,.39.08.72.25,1,.17.27.45.53.84.76.39.23.94.48,1.65.73.95.34,1.54.59,1.75.74.28.2.41.47.41.83s-.19.67-.57.92c-.38.25-.85.37-1.41.37-.39,0-.76-.03-1.1-.11-.35-.07-.71-.19-1.07-.35-.37-.16-.78-.39-1.24-.68l.63,1.8c.49.18.9.3,1.24.36.33.06.74.09,1.23.09.82,0,1.53-.12,2.14-.35.61-.23,1.07-.56,1.41-1,.33-.44.49-.93.49-1.5,0-.62-.24-1.15-.71-1.6-.24-.21-.5-.39-.79-.52-.29-.14-.79-.32-1.49-.55-.5-.16-.88-.3-1.16-.42-.28-.12-.48-.26-.6-.4-.12-.14-.19-.3-.19-.47,0-.31.15-.55.46-.74.31-.19.71-.28,1.22-.28.71,0,1.46.24,2.25.71v-1.56c-.56-.16-1.24-.24-2.04-.24M144.22,16.3c.46.29.81.69,1.06,1.21.25.52.38,1.12.38,1.8,0,.6-.12,1.13-.36,1.58-.24.46-.58.81-1.01,1.07-.43.25-.93.38-1.47.38-.41,0-.8-.08-1.16-.25-.36-.17-.68-.41-.95-.72-.28-.32-.49-.69-.63-1.11-.15-.42-.22-.87-.22-1.33,0-.59.12-1.12.35-1.58.24-.47.56-.83.99-1.09.42-.26.91-.39,1.46-.39.6,0,1.12.14,1.58.43M141.7,14.75c-.37.07-.73.18-1.06.33-.33.15-.65.34-.95.56-.54.42-.96.93-1.26,1.55-.3.62-.46,1.27-.46,1.94,0,.82.2,1.58.61,2.25.4.68.97,1.21,1.69,1.6.72.39,1.52.58,2.39.58s1.72-.2,2.47-.6c.75-.4,1.34-.95,1.76-1.64.43-.69.64-1.46.64-2.29,0-.61-.12-1.2-.36-1.76-.24-.56-.6-1.05-1.06-1.47-.85-.78-1.91-1.18-3.17-1.18-.45,0-.86.04-1.24.11M133.02,10.98c-1.23,0-2.33.27-3.32.82-.99.55-1.77,1.31-2.32,2.27-.56.97-.84,2.05-.84,3.25,0,.93.16,1.78.49,2.55.33.78.8,1.44,1.42,2.01.62.56,1.36.99,2.22,1.29.86.3,1.8.45,2.82.45.36,0,.69-.02,1-.06.31-.04.61-.09.9-.17.29-.08.61-.18.94-.32l.92-2.13c-.82.44-1.53.74-2.14.93-.61.18-1.23.27-1.87.27-.85,0-1.62-.23-2.33-.68-.71-.45-1.26-1.07-1.67-1.86-.41-.78-.61-1.65-.61-2.59,0-.87.19-1.65.56-2.33.37-.68.89-1.21,1.55-1.59.67-.38,1.42-.57,2.26-.57.56,0,1.1.08,1.63.24s1.09.42,1.7.77v-2.1c-1.28-.31-2.37-.47-3.29-.47M118.48,22.39c.09.25.28.47.56.64.22.14.45.23.69.28.24.05.58.1,1.02.13l.8-1.19c-.5-.02-.87-.12-1.09-.3-.21-.15-.34-.32-.39-.5s-.08-.53-.08-1.05v-2.36c0-.67-.02-1.14-.06-1.4-.04-.26-.14-.52-.3-.78-.51-.82-1.54-1.23-3.09-1.23-.44,0-.86.04-1.27.12l-1.21,1.84c.6-.29,1.07-.48,1.41-.58.34-.1.71-.15,1.08-.15.34,0,.64.05.91.14.27.1.48.23.62.41.15.18.22.38.22.61,0,.33-.14.57-.41.74-.27.17-.83.34-1.66.5-1.15.22-1.95.46-2.4.71-.31.16-.56.42-.75.76-.19.34-.28.7-.28,1.08,0,.8.31,1.47.93,2.03.53.48,1.25.71,2.17.71.36,0,.69-.04,1.01-.11l1.08-1.36c-.52.16-.98.24-1.37.24-.61,0-1.08-.13-1.43-.4-.34-.26-.51-.63-.51-1.09,0-.72.44-1.19,1.32-1.41.66-.15,1.08-.25,1.27-.3.19-.05.36-.1.52-.16.16-.05.34-.13.55-.23v2.36c0,.6.05,1.02.14,1.28M104.32,14.89h-1.18c.24.18.4.33.49.45.09.12.14.26.17.43.02.17.04.48.04.92v4.84c0,.44-.01.75-.04.92-.03.17-.08.32-.17.44-.09.12-.25.27-.49.45h3.03c-.23-.19-.39-.34-.48-.45-.09-.12-.14-.27-.17-.45-.03-.19-.04-.49-.04-.9v-3.69c0-.46.08-.81.25-1.04.18-.25.42-.44.73-.58.3-.14.64-.21,1.01-.21s.74.07,1.07.22c.34.14.59.33.77.56.14.17.24.4.31.68.06.28.09.67.09,1.16v2.91c0,.4-.01.69-.04.88-.03.19-.09.35-.18.47-.09.12-.25.27-.49.45h3.06c-.32-.25-.52-.47-.59-.66-.07-.18-.11-.57-.11-1.15v-3.11c0-.69-.03-1.22-.09-1.56-.06-.35-.17-.65-.34-.91-.18-.25-.41-.48-.69-.68-.29-.2-.62-.35-1-.46-.38-.11-.75-.16-1.12-.16-.54,0-1.02.11-1.42.32-.41.21-.84.58-1.29,1.11v-1.52c-.21.23-.57.35-1.07.35M98.85,16.3c.45.29.81.69,1.06,1.21.25.52.38,1.12.38,1.8,0,.6-.12,1.13-.36,1.58-.24.46-.58.81-1.01,1.07-.43.25-.93.38-1.47.38-.41,0-.8-.08-1.16-.25-.36-.17-.68-.41-.95-.72-.28-.32-.49-.69-.64-1.11-.15-.42-.22-.87-.22-1.33,0-.59.12-1.12.35-1.58.23-.47.56-.83.99-1.09.42-.26.91-.39,1.46-.39.6,0,1.12.14,1.58.43M96.33,14.75c-.37.07-.72.18-1.06.33-.33.15-.65.34-.95.56-.54.42-.96.93-1.26,1.55-.31.62-.46,1.27-.46,1.94,0,.82.2,1.58.6,2.25.4.68.97,1.21,1.69,1.6.72.39,1.52.58,2.39.58s1.72-.2,2.47-.6c.75-.4,1.33-.95,1.76-1.64.43-.69.64-1.46.64-2.29,0-.61-.12-1.2-.36-1.76-.24-.56-.6-1.05-1.06-1.47-.85-.78-1.91-1.18-3.17-1.18-.45,0-.86.04-1.24.11M92.05,21.36c-.29.17-.58.31-.87.42-.29.11-.59.19-.9.24-.31.05-.69.07-1.14.07-.98,0-1.94-.05-2.9-.14l4.98-7.06h-6.5l-.91,1.84c.34-.24.7-.4,1.09-.5.39-.1.89-.14,1.51-.14.54,0,1.22.04,2.05.12l-5.2,7.13h7.77l1.03-1.97ZM80.05,11.83c-.23.22-.34.49-.34.8s.11.59.33.82c.22.22.48.33.8.33s.6-.11.82-.33c.22-.22.33-.49.33-.82,0-.31-.11-.57-.32-.79-.21-.22-.48-.33-.79-.33s-.6.11-.82.33M80.64,14.89h-1.27c.24.18.4.33.49.45.09.12.14.26.17.43.03.17.04.48.04.92v4.84c0,.44-.01.75-.04.92-.03.17-.08.32-.17.44-.09.12-.25.27-.49.45h3.03c-.23-.19-.39-.34-.48-.45-.09-.12-.15-.27-.17-.45s-.04-.49-.04-.9v-6.99c-.21.23-.57.35-1.07.35M75.88,22.88c-.09-.12-.15-.27-.17-.45s-.04-.49-.04-.9v-3.01c0-.75.13-1.31.39-1.67.16-.23.38-.41.66-.55.28-.13.59-.2.92-.2.37,0,.66.1.86.3v-1.68c-.25-.05-.47-.07-.64-.07-.47,0-.9.12-1.27.36-.37.24-.68.59-.92,1.05v-1.51c-.21.23-.57.35-1.07.35h-1.27c.24.18.4.33.49.45.09.12.14.26.17.43.03.17.04.48.04.92v4.84c0,.44-.01.75-.04.92-.03.17-.08.32-.17.44-.09.12-.25.27-.49.45h3.03c-.23-.19-.39-.34-.48-.45M63.78,17.61l1.87-4.78,1.86,4.78h-3.73ZM69.05,21.58c.21.53.31.87.31,1.02,0,.14-.04.25-.11.33-.07.08-.25.21-.55.39h3.8c-.42-.25-.74-.54-.98-.86-.23-.33-.5-.86-.79-1.6l-3.85-9.59h-2.91c.37.18.56.42.56.71,0,.17-.07.45-.21.83l-3.23,8.05c-.31.79-.56,1.33-.76,1.62-.2.29-.51.57-.94.84h3.37c-.25-.14-.42-.26-.52-.38-.1-.12-.14-.26-.14-.44,0-.26.07-.58.2-.94l1.04-2.8h4.63l1.08,2.8Z"/>
    <path class="cls-1" d="M44.68,33.86c.31.3.47.68.47,1.12s-.15.81-.47,1.12c-.31.3-.69.46-1.14.46s-.83-.15-1.14-.46c-.31-.3-.47-.68-.47-1.12s.16-.81.47-1.12c.31-.3.69-.46,1.14-.46s.83.15,1.14.46M44.46,34.05c-.25-.25-.55-.38-.91-.38s-.66.13-.91.38c-.25.25-.37.56-.37.93s.12.68.37.93c.25.25.55.38.91.38s.66-.13.91-.38c.25-.25.37-.56.37-.93s-.12-.67-.37-.93M42.85,34.07h.73c.2,0,.35.04.46.13.11.09.17.21.17.36,0,.17-.06.3-.17.4-.08.07-.19.12-.32.13l.52.8h-.33l-.47-.79h-.3v.79h-.28v-1.82ZM43.13,34.86h.39c.13,0,.23-.02.29-.07.06-.05.09-.12.09-.23,0-.09-.03-.16-.09-.2-.06-.04-.16-.06-.29-.06h-.39v.56Z"/>
  </g>
</svg>